<svg id="Слой_1" xmlns="http://www.w3.org/2000/svg" viewBox="0 0 76 128"><style>.st0{fill:#688438}</style><path class="st0" d="M24.5 18.8L13.9 10c0-.1-.1-.2-.2-.2-.3-.4-.8-.6-1.3-.5-.4 0-.9.2-1.2.5-.1.1-.1.2-.2.2L.6 18.8c-.6.5-.7 1.5-.2 2.1.3.4.7.5 1.1.5.3 0 .6-.1.9-.3l8.6-7.2v81.3l-7.3 6.1c-.6.5-.7 1.5-.2 2.1.3.4.7.5 1.2.5.3 0 .6-.1.9-.3L11 99v2.4l-7.3 6.1c-.6.5-.7 1.5-.2 2.1.3.4.7.5 1.2.5.3 0 .6-.1.9-.3l5.4-4.5v2.4l-7.3 6.1c-.6.5-.7 1.5-.2 2.1.3.4.7.5 1.2.5.3 0 .6-.1.9-.3l5.4-4.5v5.4c0 .8.7 1.5 1.5 1.5s1.5-.7 1.5-1.5v-5.2l5.3 4.4c.3.2.6.3 1 .3s.9-.2 1.2-.5c.5-.6.4-1.6-.2-2.1l-7.2-6v-2.4l5.3 4.4c.3.2.6.3 1 .3s.9-.2 1.2-.5c.5-.6.4-1.6-.2-2.1l-7.2-6v-2.4l5.3 4.4c.3.2.6.3 1 .3s.9-.2 1.2-.5c.5-.6.4-1.6-.2-2.1l-7.2-6V14l8.5 7.1c.3.2.6.3 1 .3s.9-.2 1.2-.5c.2-.7.1-1.6-.5-2.1zm37 19.5c-.3 0-.6.1-.9.3L52 45.8V0h-3v45.7l-8.5-7.1c-.3-.2-.6-.3-1-.3s-.9.2-1.1.5c-.5.6-.4 1.6.2 2.1l10.5 8.8c0 .1.1.2.2.2.3.4.8.6 1.3.5.4 0 .9-.2 1.2-.5.1-.1.1-.2.2-.2l10.5-8.8c.6-.5.7-1.5.2-2.1-.3-.3-.8-.5-1.2-.5zM43.7 83.1c-.3-.2-.6-.3-1-.3s-.9.2-1.1.5c-.5.6-.4 1.6.2 2.1l7.2 6V128h3V91.5l7.3-6.1c.6-.5.7-1.5.2-2.1-.3-.4-.7-.5-1.1-.5-.3 0-.7.1-.9.3L52 87.7v-2.4l7.3-6.1c.6-.5.7-1.5.2-2.1-.3-.4-.7-.5-1.1-.5-.3 0-.7.1-.9.3L52 81.4V79l7.3-6.1c.6-.5.7-1.5.2-2.1-.3-.4-.7-.5-1.1-.5-.3 0-.7.1-.9.3L52 75v-5.4c0-.8-.7-1.5-1.5-1.5s-1.5.8-1.5 1.6v5.2l-5.3-4.4c-.3-.2-.6-.3-1-.3s-.9.2-1.1.5c-.5.6-.4 1.6.2 2.1l7.2 6v2.4l-5.3-4.4c-.3-.2-.6-.3-1-.3s-.9.2-1.1.5c-.5.6-.4 1.6.2 2.1l7.2 6v2.4l-5.3-4.4z"/></svg>