<svg id="Слой_1" xmlns="http://www.w3.org/2000/svg" width="126" height="84" viewBox="0 0 126 84"><style>.st0,.st1{fill:#787878}.st1{display:none}</style><g id="responsive"><path class="st0" d="M101.3 45.2h-2.6c-.3 0-.5-.2-.5-.5s.2-.5.5-.5h2.6c.3 0 .5.2.5.5s-.2.5-.5.5zm-1.6 36.7c-1.3 0-2.4-1.1-2.4-2.4 0-1.3 1.1-2.4 2.4-2.4s2.4 1.1 2.4 2.4c0 1.3-1 2.4-2.4 2.4zm0-3.8c-.8 0-1.4.6-1.4 1.4 0 .8.6 1.4 1.4 1.4s1.4-.6 1.4-1.4c0-.8-.6-1.4-1.4-1.4z"/><path class="st0" d="M122.9 54.6H115v-9.7c0-1.6-1.3-2.8-2.8-2.8H87.8c-1.6 0-2.8 1.3-2.8 2.8v35.8c0 1.6 1.3 2.8 2.8 2.8h20.4c.4.4.9.6 1.5.6h13.1c1.2 0 2.2-1 2.2-2.2V56.7c0-1.1-1-2.1-2.1-2.1zM86 80.7V44.9c0-1 .8-1.8 1.8-1.8h24.4c1 0 1.8.8 1.8 1.8v9.7h-2.1v-6.4c0-.9-.8-1.7-1.7-1.7H89.8c-.9 0-1.7.8-1.7 1.7v26.5c0 .9.8 1.7 1.7 1.7h17.8V82c0 .2 0 .4.1.5H87.9c-1.1 0-1.9-.8-1.9-1.8zm24.9-26.1h-1.2c-1.2 0-2.2 1-2.2 2.2v18.7H89.7c-.4 0-.7-.3-.7-.7V48.3c0-.4.3-.7.7-.7h20.4c.4 0 .7.3.7.7v6.3h.1zM107.8 83s.1.1 0 0c.1.1 0 0 0 0zm16.2-1c0 .6-.5 1.2-1.2 1.2h-13.1c-.6 0-1.2-.5-1.2-1.2v-3.3H124V82zm0-4.3h-15.5V59.5H124v18.2zm0-19.2h-15.5v-1.7c0-.6.5-1.2 1.2-1.2h13.1c.6 0 1.2.5 1.2 1.2v1.7z"/><circle class="st0" cx="116.7" cy="81.2" r="1.1"/></g><g id="form"><path class="st0" d="M77.2 42H48.1c-1.6 0-3 1.3-3 3v36c0 1.6 1.3 3 3 3h29.1c1.6 0 3-1.3 3-3V45c0-1.7-1.3-3-3-3zm2 39c0 1.1-.9 2-2 2H48.1c-1.1 0-2-.9-2-2V52.4h33V81h.1zm-33-29.6V45c0-1.1.9-2 2-2h29.1c1.1 0 2 .9 2 2v6.5l-33.1-.1z"/><path class="st0" d="M51.3 44.6c-1.5 0-2.8 1.2-2.8 2.8 0 1.5 1.2 2.8 2.8 2.8s2.8-1.2 2.8-2.8c-.1-1.6-1.3-2.8-2.8-2.8zm0 4.5c-1 0-1.8-.8-1.8-1.8s.8-1.8 1.8-1.8 1.8.8 1.8 1.8-.9 1.8-1.8 1.8zm6.8-4.5c-1.5 0-2.8 1.2-2.8 2.8 0 1.5 1.2 2.8 2.8 2.8 1.5 0 2.8-1.2 2.8-2.8s-1.3-2.8-2.8-2.8zm0 4.5c-1 0-1.8-.8-1.8-1.8s.8-1.8 1.8-1.8 1.8.8 1.8 1.8-.8 1.8-1.8 1.8zm6.9-4.5c-1.5 0-2.8 1.2-2.8 2.8 0 1.5 1.2 2.8 2.8 2.8 1.6 0 2.8-1.2 2.8-2.8-.1-1.6-1.3-2.8-2.8-2.8zm0 4.5c-1 0-1.8-.8-1.8-1.8s.8-1.8 1.8-1.8 1.8.8 1.8 1.8-.9 1.8-1.8 1.8zm11.4-4h-2.9c-.3 0-.5.2-.5.5s.2.5.5.5h2.9c.3 0 .5-.2.5-.5s-.2-.5-.5-.5zM52.6 65.5h20.2c.9 0 1.6-.7 1.6-1.6v-3.4c0-.9-.7-1.6-1.6-1.6H52.6c-.9 0-1.6.7-1.6 1.6v3.4c0 .9.7 1.6 1.6 1.6zm-.6-5c0-.3.3-.6.6-.6h20.2c.3 0 .6.3.6.6v3.4c0 .3-.3.6-.6.6H52.6c-.3 0-.6-.3-.6-.6v-3.4zm.6 14.4h20.2c.9 0 1.6-.7 1.6-1.6v-3.4c0-.9-.7-1.6-1.6-1.6H52.6c-.9 0-1.6.7-1.6 1.6v3.4c0 .8.7 1.6 1.6 1.6zm-.6-5.1c0-.3.3-.6.6-.6h20.2c.3 0 .6.3.6.6v3.4c0 .3-.3.6-.6.6H52.6c-.3 0-.6-.3-.6-.6v-3.4z"/></g><g id="map"><path class="st0" d="M21.5 61.9c3.2 0 5.8-2.6 5.8-5.8s-2.6-5.8-5.8-5.8-5.8 2.6-5.8 5.8c0 3.3 2.6 5.8 5.8 5.8zm0-10.5c2.6 0 4.8 2.1 4.8 4.8 0 2.6-2.1 4.8-4.8 4.8-2.6 0-4.8-2.1-4.8-4.8s2.1-4.8 4.8-4.8z"/><path class="st0" d="M39.8 81.6l-6-14.1c-.2-.6-.8-1-1.4-1h-2.5c2.2-3.9 3.9-7.8 3.9-10.4 0-6.9-5.6-12.5-12.5-12.5S8.8 49.2 8.8 56.1c0 2.6 1.7 6.5 3.9 10.4H9.6c-.6 0-1.2.4-1.4 1l-6 14.1c-.2.5.2 1.1.8 1.1h35.8c.8 0 1.2-.6 1-1.1zM9.9 56.1c0-6.3 5.2-11.5 11.5-11.5s11.5 5.2 11.5 11.5c0 2.3-1.7 6.2-4 10.4-.2.3-.4.7-.6 1-2 3.5-4.5 7.2-6.9 10.5-2.4-3.3-4.9-7-6.9-10.5-.2-.3-.4-.7-.6-1-2.4-4.1-4-8-4-10.4zm11.2 25.6H3.4l5.9-13.9c.1-.2.2-.3.4-.3h3.6c2.8 4.9 6.1 9.5 7.4 11.4.2.2.4.3.6.3.2 0 .5-.1.6-.3 1.3-1.8 4.6-6.5 7.4-11.4h3.1c.2 0 .4.1.4.3l5.9 13.9H21.1z"/></g><g id="layers"><path class="st1" d="M125.2 28.1l-5.2-3.3h-.2l-13.4 8.4c-.5.3-1.1.5-1.7.5-.6 0-1.2-.2-1.7-.5l-13.3-8.4-5.1 3.3c-.6.4-.6 1.2 0 1.5l18.6 11.7c.5.3 1.1.5 1.7.5.6 0 1.2-.2 1.7-.5l18.6-11.7c.7-.4.7-1.2 0-1.5z"/><path class="st0" d="M120 24.9l-.9.6 5.4 3.4L106 40.5c-.3.2-.7.3-1.1.3-.4 0-.8-.1-1.1-.3L85.3 28.9l5.4-3.4-.9-.6-5.2 3.3c-.6.4-.6 1.2 0 1.5l18.6 11.7c.5.3 1.1.5 1.7.5.6 0 1.2-.2 1.7-.5l18.6-11.7c.6-.4.6-1.2 0-1.5l-5.2-3.3z"/><path class="st0" d="M120 16.7l5.1-3.2c.6-.4.6-1.2 0-1.5L106.5.2c-.5-.3-1.1-.5-1.7-.5-.6 0-1.2.2-1.7.5L84.5 12c-.6.4-.6 1.2 0 1.5l5.1 3.2-5.2 3.3c-.6.4-.6 1.2 0 1.5L103 33.2c.5.3 1.1.5 1.7.5.6 0 1.2-.2 1.7-.5L125 21.5c.6-.4.6-1.2 0-1.5l-5-3.3zM103.8 1c.3-.2.7-.3 1.1-.3.4 0 .8.1 1.1.3l18.5 11.7L106 24.3c-.3.2-.7.3-1.1.3-.4 0-.8-.1-1.1-.3L85.3 12.7 103.8 1zm-17 18.9v2l-1.6-1 1.8-1.1-.2.1zm1 2.5l.1.1v-3.2l1.8-1.1-.3.2v5.1l.3.2-1.9-1.3zm2.6 1.6v-6.4l.4-.2 1.2.7V25l-1.6-1zm2 1.2l.5.3v-6.8l-.7-.5 2.6 1.6-.3-.2v6.9l.7.4-2.8-1.7zm4.5 2.9l-1.5-1v-6.9l2.4 1.5-.8-.5-.1 6.9zm.2 0l.9.6v-6.9l1.5 1v6.9l-2.4-1.6zm3.3 2.3v-6.8l-.4-.3 1.9 1.2v6.9l.3.2-1.8-1.2zm5.7 2.1c-.3.2-.7.3-1.1.3-.4 0-.8-.1-1.1-.3l-.8-.5v-6.9l-1-.6 1.3.8c.4.2.8.4 1.2.4v7c.1 0 .3.1.4.1.2 0 .4 0 .5-.1v-7c.4-.1.8-.2 1.1-.4l1.4-.9-1 .6v6.9l.4-.3-1.3.9zm3.5-2.3l-1.5 1v-6.9l1.9-1.2-.4.2v6.9zm1-.6v-6.9l1.5-1v6.9l-1.5 1zm1.7-1.1l.7-.4v-6.9l-.8.5 2.3-1.5v6.9l-2.2 1.4zm4.7-3l-1.5 1v-6.9l-.3.2 2.6-1.6-.7.5-.1 6.8zm2.6-1.5l-1.5 1v-6.9l1.8-1.1-.7.5.5.3V24h-.1zm2.5-1.6l-2.2 1.4.7-.4v-5l-.2-.1 1.7 1.1v3zm1-.7V20l1.5.9-1.5.8z"/></g><g id="color"><path class="st0" d="M83.2 15.1c0-7-5.7-12.7-12.7-12.7-3 0-5.7 1-7.8 2.7-2.2-1.7-4.9-2.7-7.8-2.7-7 0-12.7 5.7-12.7 12.7 0 5.2 3.2 9.8 7.7 11.7v.7c0 7 5.7 12.7 12.7 12.7s12.7-5.7 12.7-12.7v-.6c4.6-1.9 7.9-6.5 7.9-11.8zm-40 0c0-6.5 5.3-11.7 11.7-11.7 2.6 0 5.1.9 7.1 2.4-2.5 2.3-4.1 5.6-4.1 9.3v.6c-4.2 1.7-7.2 5.5-7.8 10.1-4.1-2-6.9-6-6.9-10.7zm23.4 0v.3c-1.3-.4-2.6-.6-4-.6-1.3 0-2.6.2-3.7.6v-.2c0-3.4 1.5-6.5 3.9-8.7 2.3 2 3.8 5.1 3.8 8.6zm-3.9 8.6c-2.1-1.9-3.5-4.5-3.8-7.4 1.2-.4 2.4-.6 3.7-.6 1.4 0 2.7.3 3.9.7-.3 2.9-1.7 5.5-3.8 7.3zm4.7-6.9c3.7 1.7 6.3 5.2 6.8 9.4-1.2.4-2.4.6-3.7.6-2.6 0-5.1-.9-7.1-2.4 2.2-2 3.6-4.6 4-7.6zm-5.5 7.6c-2 1.5-4.4 2.4-7.1 2.4-1.4 0-2.7-.3-3.9-.7.5-4.2 3.2-7.8 7-9.4.4 3 1.9 5.7 4 7.7zm12.4 3c0 6.5-5.3 11.7-11.7 11.7-6.5 0-11.7-5.3-11.7-11.7v-.3c1.3.4 2.6.6 4 .6 3 0 5.7-1 7.8-2.7 2.2 1.7 4.9 2.7 7.8 2.7 1.3 0 2.6-.2 3.7-.6.1.2.1.3.1.3zm.9-1.6c-.6-4.5-3.6-8.3-7.6-10.1V15c0-3.7-1.6-7-4.1-9.3 2-1.5 4.4-2.4 7.1-2.4 6.5 0 11.7 5.3 11.7 11.7-.1 4.9-3 9-7.1 10.8z"/><path class="st0" d="M78.9 12.6c-1.1-3.7-4.5-6.2-8.4-6.2-.3 0-.5.2-.5.5s.2.5.5.5c3.4 0 6.4 2.3 7.4 5.5.1.2.3.4.5.4h.1c.3-.2.5-.5.4-.7zM50.6 7.1c-3.6 1.4-5.8 5.1-5.5 8.9 0 .3.2.5.5.5s.5-.3.5-.5c-.3-3.4 1.7-6.6 4.9-7.9.3-.1.4-.4.3-.6-.2-.4-.4-.5-.7-.4zM66 35c-3 1.6-6.8 1-9.1-1.4-.2-.2-.5-.2-.7 0s-.2.5 0 .7c1.7 1.7 3.9 2.6 6.2 2.6 1.4 0 2.8-.3 4.1-1 .2-.1.3-.4.2-.7-.2-.3-.5-.4-.7-.2z"/></g><g id="design"><path class="st0" d="M29.4 24.5l-4-10.7L26.9 2c.1-.5-.1-.9-.4-1.3-.3-.3-.7-.5-1.2-.5h-8.5c-.5 0-.9.2-1.2.5s-.4.8-.4 1.3l1.5 11.7-4 10.8c-.3.9-.2 1.8.3 2.6l7.4 10.8c.1.2.4.3.6.3.2 0 .5-.1.6-.3L29 27.1c.6-.9.8-1.9.4-2.6zM16.1 1.9c0-.2 0-.4.2-.5.1-.1.3-.2.5-.2h8.5c.2 0 .4.1.5.2s.2.3.2.5l-1.4 11.4h-6.9L16.1 1.9zm5 21.2c-1.1 0-2.1-.9-2.1-2.1s.9-2.1 2.1-2.1c1.1 0 2.1.9 2.1 2.1s-1.1 2.1-2.1 2.1zm7.2 3.4l-6.7 9.8V24.2c1.4-.3 2.5-1.5 2.5-3 0-1.7-1.4-3-3-3s-3 1.4-3 3c0 1.5 1.1 2.8 2.6 3v12.1l-6.8-9.8c-.3-.5-.4-1.1-.2-1.7l3.9-10.6h7l3.9 10.6c.1.6.1 1.2-.2 1.7z"/><path class="st0" d="M36.8 37.2h-2c-.6 0-1.1.5-1.1 1.1v.5h-6.6c7.8-2.6 13.4-9.9 13.4-18.5 0-.3-.2-.5-.5-.5s-.5.2-.5.5c0 10.2-8.3 18.5-18.5 18.5S2.5 30.5 2.5 20.3c0-.3-.2-.5-.5-.5s-.5.2-.5.5c0 8.6 5.6 15.9 13.4 18.5H8.3v-.5c0-.6-.5-1.1-1.1-1.1h-2c-.6 0-1.1.5-1.1 1.1v2c0 .6.5 1.1 1.1 1.1h2c.6 0 1.1-.5 1.1-1.1v-.5h25.3v.5c0 .6.5 1.1 1.1 1.1h2c.6 0 1.1-.5 1.1-1.1v-2c.3-.6-.4-1.1-1-1.1zM7.3 40.5c0 .1-.1.2-.2.2h-2c-.1 0-.2-.1-.2-.2v-2c0-.1.1-.2.2-.2h2c.1 0 .2.1.2.2v2zm29.8 0c0 .1-.1.2-.2.2h-2c-.1 0-.2-.1-.2-.2v-2c0-.1.1-.2.2-.2h2c.1 0 .2.1.2.2v2z"/></g></svg>