<svg id="Слой_1" xmlns="http://www.w3.org/2000/svg" width="439" height="172" viewBox="0 0 439 172"><style>.st0{fill:#fff}</style><path class="st0" d="M201.4 83.2c-7 0-13.4 2-19.2 6.1-5.8 4.1-9.9 9.4-12.2 16.1-.6 1.7-1.8 2.6-3.7 2.6-1.3 0-2.4-.6-3.1-1.7-.8-1-.9-2.2-.4-3.6L197 9.3c.9-2.1 2.4-3.1 4.7-3.1s3.8 1 4.6 3.1l34.3 93.3c.5 1.3.3 2.5-.4 3.6-.8 1.1-1.8 1.7-3.1 1.7-1.8 0-3-.9-3.7-2.6-2.4-6.6-6.5-12-12.2-16.1-5.8-4.1-12.2-6.1-19.2-6.1h-.6zm12.5-13.3c3-4.2 3.7-8.7 1.9-13.7l-14.1-39.8-14.2 39.8c-1.7 4.9-1.1 9.5 1.8 13.7 3 4.3 7.2 6.4 12.4 6.4 5.1 0 9.2-2.1 12.2-6.4zm41.9 36.2c-.7 1.2-1.7 1.8-3.1 1.8-1.5 0-2.6-.6-3.3-1.8-.8-1.3-.8-2.6 0-3.8l16.2-27.2c3.6-6 5.4-12.4 5.4-19.3s-1.8-13.4-5.3-19.3l-14.4-24.6c-.8-1.2-.8-2.5-.1-3.7.8-1.2 1.8-1.8 3.3-1.8h.3c1.5 0 2.6.6 3.3 1.8l16.5 29c1.5 2.7 3.7 4 6.7 4s5.3-1.3 6.8-4l16.6-29c.7-1.2 1.7-1.8 3.1-1.8h.3c1.4 0 2.5.6 3.1 1.8.8 1.2.8 2.5 0 3.7L297 36.2c-3.5 6.1-5.3 12.6-5.3 19.5.1 7 1.9 13.5 5.5 19.3l16.4 27.2c.7 1.2.7 2.5 0 3.8-.8 1.2-1.9 1.8-3.3 1.8h-.3c-1.4 0-2.5-.6-3.1-1.8L288 73.9c-1.4-2.5-3.7-3.7-6.7-3.7-2.9 0-5.1 1.2-6.5 3.7l-19 32.2zM340.5 10v94c0 2.6-1.3 3.8-3.8 3.8s-3.8-1.3-3.8-3.8V10c0-2.6 1.3-3.8 3.8-3.8s3.8 1.3 3.8 3.8zm24.8-.8c0-2.3 1.1-3.4 3.4-3.4h31.4c10.1 0 18.5 3.5 25.5 10.4 4.3 4.4 7 9.5 8.3 15.5.8 4.4 1.1 12.9 1.1 25.8s-.4 21.5-1.1 25.9c-1.1 6-3.9 11.1-8.3 15.5-6.9 6.9-15.4 10.4-25.5 10.4-10 0-18.4-3.5-25.5-10.4-4.3-4.4-7-9.5-8.1-15.5-.9-4.4-1.3-13-1.3-25.9V9.2zm34.8 93.2c7.6 0 14-2.6 19.3-7.8 3.4-3.5 5.6-7.9 6.7-13.2.8-4.2 1.1-12.1 1.1-23.9 0-11.7-.4-19.6-1.1-23.9-1-5.2-3.3-9.6-6.7-13.1-5.3-5.2-11.8-7.8-19.3-7.8-7.6 0-14 2.6-19.2 7.8-3.5 3.5-5.7 7.9-6.7 13.1-.9 4.3-1.3 12.2-1.3 23.9 0 11.8.4 19.7 1.3 23.9.9 5.3 3.2 9.7 6.7 13.2 5.3 5.2 11.7 7.8 19.2 7.8zM133.8 27c-9.2-13.5-23.1-22.6-39.1-25.7-9-1.7-17.9-1.7-26.5-.3-.2 0-.3 0-.5.1C37.4 6.3 12 29.8 5.9 61.7 2 82.2 5.1 102.5 13.5 120c.1.3.2.5.4.7 12.6 25.7 36.8 45.4 67 51.2h.8c.1 0 .2 0 .2-.1 0 0 .1 0 .1-.1.1 0 .1-.1.2-.1l.1-.1h.1l.1-.1.2-.2.1-.1.2-.2.1-.1c.1-.1.1-.2.1-.3v-.1c0-.1.4-1 .1-1.7-.1-.2-.4-1-.4-1-10.4-15.3-10.3-33.1-8.3-45.5.4-2.1 2.7-10.2 15-9.6l.1.1c11.5 1.1 22.9-1.7 32.6-8.3 10.9-7.4 18.3-18.6 20.7-31.6 3.3-16 0-32.3-9.2-45.8zM63.6 54.4c.1-.1.1-.1 0 0 .5-.7 4.7-5.5 11.2-6.3.1 0 .2 0 .4-.1 2.5 0 4.7.5 6.6 1.6 1.1.7 2 1.5 2.8 2.3.2.3 3.5 2.7-1.5 3.9-5 1.6-8.7 5.7-9.7 11.1-.9 4.7.5 9.4 3.1 13.3 0 0 1.6 2.6 1.6 8.8v.1c0 3-1 6.9.5 11.9 0 0 2.2 5.8-3.6 2.6-4.4-2.6-8.2-6.3-11.2-10.6-5.3-7.8-7.3-17.3-5.5-26.6.8-4.5 2.6-8.6 5.3-12zm24.7 28.8c-3.4-.7-6.4-2.6-8.4-5.5s-2.7-6.4-2-9.8c1-5.4 7.6-8.3 12.2-8.3 4.4 0 8.3 2.4 10.7 6.5 2.4 4.2 3.3 9.8-1.7 14.6-2.8 2.3-7 3.2-10.8 2.5zM95 56.1c-2-1.3-4.4-3.5-4.7-4.1 0 0-.1 0-.1-.1-1.2-2-3.1-4.6-6-6.3-1.1-.7-2.3-1.2-3.6-1.6 3.4-.6 6.8-.6 10.3 0 10.3 1.9 17.5 10.8 17.7 20.9-.3 9.7-2.3 3-2.3 3-.4-1.6-.9-2.9-1.5-4-2.4-4-5.8-6.6-9.8-7.8zm35-26.5c1.2 1.8 2.3 3.6 3.3 5.4 1.8 3.4 8 17.4-1.7 27.7-2.5 2.1-3.8 3.5-6.1 4.4C117.4 69.4 114 57 114 57c-3-5.3-6.4-9.9-10.9-13.1-3.2-3.1-4.9-7-5.2-9.7.2-6.1-1-14.3-5.8-21.1-.7-1-1.6-2-2.5-2.9-.2-.6-1.3-5.4 6.4-4 13.9 3.3 25.9 11.5 34 23.4zm-119.6 33c5.4-28.5 27.2-49.8 53.7-56.1 3.4-.5 7.6-.5 12.1.8 5.1 1.7 9.1 4.6 11.8 8.5 1.9 2.6 3 5.6 3.7 8.5.2.9 1.4 9.8-10.1 15.1-5.1.6-10.3 2.4-14.6 5.4-5.3 3.6-9 8.6-12 14.3-2 7.9-7.7 11.4-10 12.6-1.4.8-5.4 2.9-7.8 4.7C33.3 79 29 83 25 88c-11.4 18-14.8 5.8-15.1 4.3-1.5-9.8-1.4-19.5.5-29.7zm16.7 70.9c-8.7-11.4-7.2-22-5.8-26.7 3.9-11.5 10.2-20.6 18.4-26.6.7-.5 1.3-.9 1.9-1.3.4-.2 10.2-6.4 12.4 3 0 .2.1.3.1.5v.1c1.1 4.6 3.1 9 5.8 13 2.2 3.2 4.7 6 7.6 8.4 1.8 1.9 4.5 6.1 3.4 13.4-.1.9-.2 1.7-.3 2.2-1.5 8.2-2.4 19.4 0 31 .3 1.4.7 2.9 1.1 4.3.8 4.3.9 10-4.8 8.7-1.3-.5-2.5-1-3.8-1.5-2.7-1.4-4.5-2.3-5.8-2.7-11.8-6.4-22.2-15.2-30.2-25.8zm92.9-32.8c-6.7 4.6-14.4 7.2-22.3 7.7-.4 0-.8-.1-1.2-.1-7.9-.5-11.1-4-12.1-5.5-.8-1.6-1.4-3.1-1.8-4.6 0 0-3.2-9.2 8.9-10.2.6 0 1.2-.1 1.9-.1h.1c2.9-.3 5.7-1.1 8.2-2.5.1 0 3.8-2.4 3.8-2.4 1.2-1 10-8.2 19.1-11.2.7-.2 1.4-.5 2.2-.8 1.1-.4 2.4-.8 3.1-1.2 1-.5 2.5-1.4 3.5-2.1 1-.7 7.3-5.6 6.4 1.4 0 0-.3 1.6-.6 2.9-2.7 12.3-9.3 21.9-19.2 28.7z"/></svg>