<svg id="Слой_1" xmlns="http://www.w3.org/2000/svg" viewBox="0 0 500 250"><style>.st0{fill:#fff}</style><path id="XMLID_30_" class="st0" d="M228.9 96.6c-8.1 0-15.6 2.3-22.3 7.1-6.7 4.8-11.5 10.9-14.2 18.7-.7 2-2.1 3-4.3 3-1.5 0-2.8-.7-3.6-2-.9-1.2-1-2.6-.5-4.2l39.7-108.4c1-2.4 2.8-3.6 5.5-3.6s4.4 1.2 5.3 3.6l39.8 108.3c.6 1.5.3 2.9-.5 4.2-.9 1.3-2.1 2-3.6 2-2.1 0-3.5-1-4.3-3-2.8-7.7-7.5-13.9-14.2-18.7-6.7-4.8-14.2-7.1-22.3-7.1h-.7v.1zm14.5-15.4c3.5-4.9 4.3-10.1 2.2-15.9l-16.4-46.2-16.5 46.2c-2 5.7-1.3 11 2.1 15.9 3.5 5 8.4 7.4 14.4 7.4 5.9 0 10.7-2.5 14.2-7.4z"/><path id="XMLID_12_" class="st0" d="M292 123.2c-.8 1.4-2 2.1-3.6 2.1-1.7 0-3-.7-3.8-2.1-.9-1.5-.9-3 0-4.4l18.8-31.6c4.2-7 6.3-14.4 6.3-22.4s-2.1-15.6-6.2-22.4l-16.7-28.6c-.9-1.4-.9-2.9-.1-4.3.9-1.4 2.1-2.1 3.8-2.1h.3c1.7 0 3 .7 3.8 2.1l19.2 33.7c1.7 3.1 4.3 4.6 7.8 4.6s6.2-1.5 7.9-4.6l19.3-33.7c.8-1.4 2-2.1 3.6-2.1h.3c1.6 0 2.9.7 3.6 2.1.9 1.4.9 2.9 0 4.3L339.8 42c-4.1 7.1-6.2 14.6-6.2 22.6.1 8.1 2.2 15.7 6.4 22.4l19 31.6c.8 1.4.8 2.9 0 4.4-.9 1.4-2.2 2.1-3.8 2.1h-.3c-1.6 0-2.9-.7-3.6-2.1l-21.9-37.3c-1.6-2.9-4.3-4.3-7.8-4.3-3.4 0-5.9 1.4-7.5 4.3L292 123.2z"/><path id="XMLID_11_" class="st0" d="M390.3 11.6v109.1c0 3-1.5 4.4-4.4 4.4s-4.4-1.5-4.4-4.4V11.6c0-3 1.5-4.4 4.4-4.4s4.4 1.5 4.4 4.4z"/><path id="XMLID_25_" class="st0" d="M419.1 10.7c0-2.7 1.3-3.9 3.9-3.9h36.4c11.7 0 21.5 4.1 29.6 12.1 5 5.1 8.1 11 9.6 18 .9 5.1 1.3 15 1.3 29.9s-.5 25-1.3 30.1c-1.3 7-4.5 12.9-9.6 18-8 8-17.9 12.1-29.6 12.1-11.6 0-21.4-4.1-29.6-12.1-5-5.1-8.1-11-9.4-18-1-5.1-1.5-15.1-1.5-30.1V10.7h.2zm40.4 108.2c8.8 0 16.3-3 22.4-9.1 3.9-4.1 6.5-9.2 7.8-15.3.9-4.9 1.3-14 1.3-27.7 0-13.6-.5-22.8-1.3-27.7-1.2-6-3.8-11.1-7.8-15.2-6.2-6-13.7-9.1-22.4-9.1-8.8 0-16.3 3-22.3 9.1-4.1 4.1-6.6 9.2-7.8 15.2-1 5-1.5 14.2-1.5 27.7 0 13.7.5 22.9 1.5 27.7 1 6.2 3.7 11.3 7.8 15.3 6.2 6.1 13.6 9.1 22.3 9.1z"/><path id="XMLID_16_" class="st0" d="M150.4 31.4C139.7 15.7 123.6 5.1 105 1.5c-10.4-2-20.8-2-30.8-.3-.2 0-.3 0-.6.1C38.5 7.3 9 34.6 1.9 71.6c-4.5 23.8-.9 47.4 8.9 67.7.1.3.2.6.5.8 14.6 29.8 42.7 52.7 77.8 59.4h.9c.1 0 .2 0 .2-.1 0 0 .1 0 .1-.1.1 0 .1-.1.2-.1l.1-.1h.1l.1-.1.2-.2.1-.1.2-.2.1-.1c.1-.1.1-.2.1-.3v-.1c0-.1.5-1.2.1-2-.1-.2-.5-1.2-.5-1.2-12.1-17.8-12-38.4-9.6-52.8.5-2.4 3.1-11.8 17.4-11.1l.1.1c13.3 1.3 26.6-2 37.8-9.6 12.7-8.6 21.2-21.6 24-36.7 4.1-18.8.3-37.7-10.4-53.3zM68.9 63.2c.1-.2.1-.2 0 0 .6-.8 5.5-6.4 13-7.3.1 0 .2 0 .5-.1 2.9 0 5.5.6 7.7 1.9 1.3.8 2.3 1.7 3.3 2.7.2.3 4.1 3.1-1.7 4.5-5.8 1.9-10.1 6.6-11.3 12.9-1 5.5.6 10.9 3.6 15.4 0 0 1.9 3 1.9 10.2v.1c0 3.5-1.2 8 .6 13.8 0 0 2.6 6.7-4.2 3-5.1-3-9.5-7.3-13-12.3-6.2-9.1-8.5-20.1-6.4-30.9.8-5.2 2.9-10 6-13.9zm28.7 33.4c-3.9-.8-7.4-3-9.8-6.4s-3.1-7.4-2.3-11.4c1.2-6.3 8.8-9.6 14.2-9.6 5.1 0 9.6 2.8 12.4 7.5 2.8 4.9 3.8 11.4-2 16.9-3.2 2.8-8.1 3.8-12.5 3zm7.8-31.5c-2.3-1.5-5.1-4.1-5.5-4.8 0 0-.1 0-.1-.1-1.4-2.3-3.6-5.3-7-7.3-1.3-.8-2.7-1.4-4.2-1.9 3.9-.7 7.9-.7 12 0 12 2.2 20.3 12.5 20.5 24.3-.3 11.3-2.7 3.5-2.7 3.5-.5-1.9-1-3.4-1.7-4.6-2.8-4.7-6.7-7.7-11.3-9.1zM146 34.4c1.4 2.1 2.7 4.2 3.8 6.3 2.1 3.9 9.3 20.2-2 32.2-2.9 2.4-4.4 4.1-7.1 5.1-9.4 2.7-13.3-11.7-13.3-11.7-3.5-6.3-7.4-11.6-12.6-15.3-3.7-3.6-5.7-8.1-6-11.3.2-7.1-1.2-16.6-6.7-24.5-.8-1.2-1.9-2.3-2.9-3.4-.2-.7-1.5-6.3 7.4-4.6 16.1 3.8 30 13.4 39.4 27.2zM7.2 72.7c6.3-33.1 31.6-57.8 62.3-65.1 3.9-.6 8.8-.6 14 .9 5.9 2 10.6 5.3 13.7 9.9 2.2 3 3.5 6.5 4.3 9.9.2 1 1.6 11.4-11.7 17.5-5.9.7-12 2.8-16.9 6.3-6.2 4.2-10.4 10-13.9 16.6-2.3 9.2-8.9 13.2-11.6 14.6-1.6.9-6.3 3.4-9.1 5.5-4.5 3-9.5 7.7-14.2 13.5-13.2 20.9-17.2 6.7-17.5 5-1.8-11.5-1.6-22.8.6-34.6zM26.5 155c-10.1-13.2-8.4-25.5-6.7-31 4.5-13.3 11.8-23.9 21.4-30.9.8-.6 1.5-1 2.2-1.5.5-.2 11.8-7.4 14.4 3.5 0 .2.1.3.1.6v.1c1.3 5.3 3.6 10.4 6.7 15.1 2.6 3.7 5.5 7 8.8 9.8 2.1 2.2 5.2 7.1 3.9 15.6-.1 1-.2 2-.3 2.6-1.7 9.5-2.8 22.5 0 36 .3 1.6.8 3.4 1.3 5 .9 5 1 11.6-5.6 10.1-1.5-.6-2.9-1.2-4.4-1.7-3.1-1.6-5.2-2.7-6.7-3.1-13.7-7.7-25.8-17.9-35.1-30.2zm107.9-38.1c-7.8 5.3-16.7 8.4-25.9 8.9-.5 0-.9-.1-1.4-.1-9.2-.6-12.9-4.6-14-6.4-.9-1.9-1.6-3.6-2.1-5.3 0 0-3.7-10.7 10.3-11.8.7 0 1.4-.1 2.2-.1h.1c3.4-.3 6.6-1.3 9.5-2.9.1 0 4.4-2.8 4.4-2.8 1.4-1.2 11.6-9.5 22.2-13 .8-.2 1.6-.6 2.6-.9 1.3-.5 2.8-.9 3.6-1.4 1.2-.6 2.9-1.6 4.1-2.4 1.2-.8 8.5-6.5 7.4 1.6 0 0-.3 1.9-.7 3.4-3.2 14.2-10.8 25.3-22.3 33.2z"/></svg>