<svg id="Слой_1" xmlns="http://www.w3.org/2000/svg" viewBox="0 0 500 500"><style>.st0{fill:#fff}</style><path id="XMLID_3_" class="st0" d="M422.9 78.6C396.2 39.3 355.8 12.8 309.1 4 283-1 257-1.1 232.2 3c-.5 0-.9.1-1.4.2-88.1 15.1-162 83.4-179.6 176.3-11.4 59.6-2.4 118.5 22.1 169.4.2.8.6 1.5 1 2.2 36.7 74.8 106.9 132.1 194.9 148.8.4.1.8.1 1.3.1h.1c.3 0 .6 0 .9-.1.1 0 .3-.1.4-.1.2 0 .4-.1.7-.2.1 0 .3-.1.4-.2l.6-.3c.1-.1.3-.2.4-.2.1 0 .2-.1.2-.1.1 0 .1-.1.2-.2.2-.2.4-.3.6-.5l.3-.3c.2-.2.3-.4.5-.6.1-.1.2-.2.2-.3.2-.3.3-.5.4-.8 0-.1.1-.2.1-.3.1-.3.5-3.1.1-5-.1-.4-1.2-3-1.2-3-30.1-44.4-29.6-96-24-132.2 1.1-6.2 7.8-29.7 43.7-28.1.1 0 .2.2.3.2 33.4 3.3 66.7-5 94.8-24.1 31.7-21.6 53.1-54.2 60.3-91.8 8.9-46.7-.9-94-27.6-133.2zm-204 79.5s0-.1.1-.2c1.4-1.8 13.4-15.8 32.4-18.3.4 0 .7-.1 1-.2 7.3-.1 13.7 1.4 19.2 4.7 3.2 1.9 5.7 4.3 7.9 6.8.7.9 11.4 8-4.6 11.4-15 4.8-25 16.7-28 32.3-2.6 13.5 1 27.2 8.8 38.6 0 0 4.2 7.5 4.2 25.6v.4c0 8.8-2.2 18.9 2.2 33.9 0 0 6.4 17-10.4 7.8-12.8-7.6-23.8-18.2-32.4-30.8-15.5-22.7-21.1-50.2-16-77.2 2.4-12.9 7.8-24.8 15.6-34.8zm71.8 83.6c-10-1.9-18.7-7.6-24.4-16s-7.9-18.6-5.9-28.6c3-15.8 22.1-24.2 35.4-24.2 12.9 0 24.2 6.9 31 19 6.9 12.1 9.5 28.6-5.1 42.3-7.7 7.2-20 9.6-31 7.5zm21.3-78.6c-8-3.9-13.7-10.2-14.7-11.9-.1-.1-.6-.1-.7-.3h-.5c-3.6-7-9.1-13.2-17.5-18.1-3.3-2-6.8-3.5-10.5-4.6 9.8-1.8 19.9-1.8 29.9.1 29.8 5.7 50.8 31.5 51.6 60.6-1 28.2-6.6 8.7-6.6 8.7-1.1-4.5-1.7-8.4-3.6-11.7-6.8-11.8-16.4-19.2-27.4-22.8zM411.8 86c3.5 5.1 6.6 10.3 9.5 15.7 5.1 9.9 23.2 50.4-4.8 80.5-7.2 6.2-11.2 10.2-18 12.9-23.4 6.5-33.5-29.3-33.5-29.3-8-15.3-18.3-28.7-31.6-38-9.4-9-14-20.4-15-28.3.5-17.7-2.9-41.5-16.8-61.4-2.1-3-4.8-5.7-7.2-8.4-.5-1.7-3.8-15.7 18.5-11.5 40.6 9.4 75.4 33.3 98.9 67.8zM64.2 181.9c15.7-82.8 79-144.7 156.1-163 10-1.3 22-1.3 35.1 2.2 14.9 5 26.4 13.2 34.4 24.6 5.4 7.7 8.8 16.2 10.8 24.7.4 2.5 4.1 28.4-29.3 43.8-14.7 1.8-29.3 7.1-41.9 15.7-15.4 10.4-26.4 24.8-34.4 41.6-7 22.9-23.1 33-29.8 36.7-4.2 2.2-16 8.1-22.9 13.2-11.1 8.1-24.1 20.7-35.7 33.7-33.1 53-42.9 17.2-44 13-4.3-28.6-4.1-56.3 1.6-86.2zm48.6 206.3c-25.3-33.2-20.9-64-16.9-77.7 11.5-33.5 29.6-59.8 53.4-77.4 1.9-1.4 3.8-2.7 5.7-3.9 1-.7 29.6-18.6 36.2 8.6l.3 1.5v.2c3.3 13.3 8.9 26 16.8 37.7 6.3 9.3 13.8 17.4 22.2 24.3 5.3 5.5 13.1 17.6 9.9 38.9-.4 2.7-.6 4.8-.8 6.4-4.4 24-7.1 56.4 0 90 .9 4.2 1.9 8.4 3.2 12.6 2.3 12.5 2.5 29.1-13.9 25.3-3.7-1.4-7.3-2.9-10.9-4.4-7.8-4.1-13.1-6.6-16.7-7.8-35.1-18-65.2-43.6-88.5-74.3zm270-95.5C363.2 306 341 313.5 318 315c-1.1-.1-2.3-.2-3.6-.3-23.1-1.5-32.2-11.5-35.1-15.9-2.3-4.7-4-9.1-5.2-13.3 0 0-9.4-27.1 26-30 1.8 0 3.6-.6 5.4-.6h.2v.3c8.5-.8 16.6-3.1 23.9-7.1.2-.1 11.1-6.9 11.2-7 3.6-3 29.1-23.7 55.5-32.5 2.2-.7 4.2-1.5 6.4-2.4 3.1-1.2 7.1-2.4 8.9-3.5 2.8-1.5 7.4-3.9 10.2-6 3-2.1 21.1-16.2 18.7 4 0 0-.9 4.7-1.8 8.5-7.8 35.8-27.2 63.9-55.9 83.5z"/></svg>