<svg id="Слой_1" xmlns="http://www.w3.org/2000/svg" width="48" height="48" viewBox="0 0 48 48"><style>.st0{opacity:.19;enable-background:new}.st1{fill:#f2552c}.st2{fill:#bc3d24}.st3{fill:#a3351f}</style><ellipse class="st0" cx="24.5" cy="44.7" rx="10.4" ry="3.3"/><path class="st1" d="M40 15.5c0 8.6-15.5 29.3-15.5 29.3S9 24.1 9 15.5 15.9 0 24.5 0 40 6.9 40 15.5z"/><circle class="st2" cx="24.6" cy="15.5" r="5.9"/><path class="st3" d="M24.6 11.6c2.9 0 5.3 2.1 5.8 4.9.1-.3.1-.7.1-1 0-3.2-2.6-5.9-5.9-5.9-3.2 0-5.9 2.6-5.9 5.9 0 .3 0 .7.1 1 .5-2.8 2.9-4.9 5.8-4.9z"/></svg>