<svg id="Слой_1" xmlns="http://www.w3.org/2000/svg" width="48" height="48" viewBox="-281 373 48 48"><style>.st0{opacity:.19;enable-background:new}.st1{fill:#3a4631}.st2{fill:#242b1f}.st3{fill:#0e110c}</style><ellipse class="st0" cx="-257.5" cy="417.7" rx="10.4" ry="3.3"/><path class="st1" d="M-242 388.5c0 8.6-15.5 29.3-15.5 29.3s-15.5-20.7-15.5-29.3 6.9-15.5 15.5-15.5 15.5 6.9 15.5 15.5z"/><circle class="st2" cx="-257.4" cy="388.5" r="5.9"/><path class="st3" d="M-257.4 384.6c2.9 0 5.3 2.1 5.8 4.9.1-.3.1-.7.1-1 0-3.2-2.6-5.9-5.9-5.9-3.2 0-5.9 2.6-5.9 5.9 0 .3 0 .7.1 1 .5-2.8 2.9-4.9 5.8-4.9z"/></svg>